<svg xmlns="http://www.w3.org/2000/svg" viewBox="0 0 980 296" width="980" height="296" role="img" aria-label="Recall by lever"><style>svg{--ink:#191919;--mut:#78746c;--line:#e7e4dc;--card:#fbfaf7;--accent:#8a5a2b;--track:#eceadf;--ci:#d6cfc0;--heat:#184f95}.h0{fill:#fbfaf7}.h1{fill:#f5f6f5}.h2{fill:#eff1f2}.h3{fill:#e9edf0}.h4{fill:#e3e8ee}.h5{fill:#dde4ec}.h6{fill:#d8e0e9}.h7{fill:#d2dbe7}.h8{fill:#ccd7e5}.h9{fill:#c6d2e2}.h10{fill:#c0cee0}.h11{fill:#bbcade}.h12{fill:#b5c6db}.h13{fill:#afc1d9}.h14{fill:#aabdd7}.h15{fill:#a4b9d4}.h16{fill:#9eb4d2}.h17{fill:#99b0cf}.h18{fill:#93accd}.h19{fill:#8ea8cb}.h20{fill:#88a3c8}@media(prefers-color-scheme:dark){svg{--ink:#eceae2;--mut:#98958c;--line:#2e2f27;--card:#141510;--accent:#d4a373;--track:#26271f;--ci:#42443a;--heat:#9ec5f4}.h0{fill:#141510}.h1{fill:#171915}.h2{fill:#1a1c19}.h3{fill:#1d201e}.h4{fill:#202423}.h5{fill:#232827}.h6{fill:#262b2c}.h7{fill:#292f31}.h8{fill:#2c3336}.h9{fill:#2f373b}.h10{fill:#323b41}.h11{fill:#363f46}.h12{fill:#39444b}.h13{fill:#3c4851}.h14{fill:#3f4c56}.h15{fill:#43505c}.h16{fill:#465561}.h17{fill:#4a5967}.h18{fill:#4d5d6c}.h19{fill:#506272}.h20{fill:#546678}}svg{font-family:ui-sans-serif,system-ui,-apple-system,'Segoe UI',Roboto,sans-serif}text{dominant-baseline:middle}.bg{fill:var(--card)}.lbl{font-size:11.5px;fill:var(--ink);font-family:ui-monospace,SFMono-Regular,Menlo,monospace}.val{font-size:11.5px;fill:var(--ink);font-variant-numeric:tabular-nums;font-weight:600}.meta{font-size:10px;fill:var(--mut);font-variant-numeric:tabular-nums}.ttl{font-size:13px;fill:var(--ink);font-weight:600}.sub{font-size:10.5px;fill:var(--mut)}.rule{stroke:var(--line);stroke-width:1}.trk{fill:var(--track)}.ci{stroke:var(--ink);stroke-width:1.5;stroke-linecap:butt;opacity:0.55}.fill{fill:var(--accent)}.cellv{font-size:10px;fill:var(--ink);font-variant-numeric:tabular-nums}.na{font-size:11px;fill:var(--mut)}</style><rect class="bg" x="0" y="0" width="980" height="296"/><text class="ttl" x="0" y="12">Recall by lever</text><text class="lbl" x="0" y="42.0"><title>bare</title>bare</text><text class="val" x="266" y="42.0" text-anchor="end">70.3%</text><rect class="trk" x="280" y="36.0" width="614" height="12" rx="6"/><rect class="fill" x="280" y="36.0" width="431.4" height="12" rx="6"><title>bare: 70.3% (CI 68.3-72.1), n=2240</title></rect><path class="ci" d="M699.6,37.0 V47.0 M699.6,42.0 H722.8 M722.8,37.0 V47.0" fill="none"/><line x1="300.9" y1="33.0" x2="300.9" y2="51.0" stroke="var(--ink)" stroke-width="1.5" opacity="0.4"/><text class="meta" x="980" y="42.0" text-anchor="end">n=2240</text><text class="lbl" x="0" y="66.0"><title>identity</title>identity</text><text class="val" x="266" y="66.0" text-anchor="end">68.4%</text><rect class="trk" x="280" y="60.0" width="614" height="12" rx="6"/><rect class="fill" x="280" y="60.0" width="420.0" height="12" rx="6"><title>identity: 68.4% (CI 66.3-70.4), n=2000</title></rect><path class="ci" d="M687.3,61.0 V71.0 M687.3,66.0 H712.3 M712.3,61.0 V71.0" fill="none"/><line x1="300.9" y1="57.0" x2="300.9" y2="75.0" stroke="var(--ink)" stroke-width="1.5" opacity="0.4"/><text class="meta" x="980" y="66.0" text-anchor="end">n=2000</text><text class="lbl" x="0" y="90.0"><title>forged_frame</title>forged_frame</text><text class="val" x="266" y="90.0" text-anchor="end">63.3%</text><rect class="trk" x="280" y="84.0" width="614" height="12" rx="6"/><rect class="fill" x="280" y="84.0" width="389.0" height="12" rx="6"><title>forged_frame: 63.3% (CI 61.3-65.3), n=2240</title></rect><path class="ci" d="M656.6,85.0 V95.0 M656.6,90.0 H681.1 M681.1,85.0 V95.0" fill="none"/><line x1="300.9" y1="81.0" x2="300.9" y2="99.0" stroke="var(--ink)" stroke-width="1.5" opacity="0.4"/><text class="meta" x="980" y="90.0" text-anchor="end">n=2240</text><text class="lbl" x="0" y="114.0"><title>execution_surface</title>execution_surface</text><text class="val" x="266" y="114.0" text-anchor="end">62.9%</text><rect class="trk" x="280" y="108.0" width="614" height="12" rx="6"/><rect class="fill" x="280" y="108.0" width="386.3" height="12" rx="6"><title>execution_surface: 62.9% (CI 59.3-66.4), n=720</title></rect><path class="ci" d="M644.3,109.0 V119.0 M644.3,114.0 H687.5 M687.5,109.0 V119.0" fill="none"/><line x1="300.9" y1="105.0" x2="300.9" y2="123.0" stroke="var(--ink)" stroke-width="1.5" opacity="0.4"/><text class="meta" x="980" y="114.0" text-anchor="end">n=720</text><text class="lbl" x="0" y="138.0"><title>inference</title>inference</text><text class="val" x="266" y="138.0" text-anchor="end">58.2%</text><rect class="trk" x="280" y="132.0" width="614" height="12" rx="6"/><rect class="fill" x="280" y="132.0" width="357.2" height="12" rx="6"><title>inference: 58.2% (CI 56.1-60.2), n=2240</title></rect><path class="ci" d="M624.5,133.0 V143.0 M624.5,138.0 H649.6 M649.6,133.0 V143.0" fill="none"/><line x1="300.9" y1="129.0" x2="300.9" y2="147.0" stroke="var(--ink)" stroke-width="1.5" opacity="0.4"/><text class="meta" x="980" y="138.0" text-anchor="end">n=2240</text><text class="lbl" x="0" y="162.0"><title>pretext</title>pretext</text><text class="val" x="266" y="162.0" text-anchor="end">51.0%</text><rect class="trk" x="280" y="156.0" width="614" height="12" rx="6"/><rect class="fill" x="280" y="156.0" width="313.0" height="12" rx="6"><title>pretext: 51.0% (CI 47.3-54.6), n=720</title></rect><path class="ci" d="M570.6,157.0 V167.0 M570.6,162.0 H615.3 M615.3,157.0 V167.0" fill="none"/><line x1="300.9" y1="153.0" x2="300.9" y2="171.0" stroke="var(--ink)" stroke-width="1.5" opacity="0.4"/><text class="meta" x="980" y="162.0" text-anchor="end">n=720</text><text class="lbl" x="0" y="186.0"><title>output_marking</title>output_marking</text><text class="val" x="266" y="186.0" text-anchor="end">49.4%</text><rect class="trk" x="280" y="180.0" width="614" height="12" rx="6"/><rect class="fill" x="280" y="180.0" width="303.6" height="12" rx="6"><title>output_marking: 49.4% (CI 46.9-52.0), n=1440</title></rect><path class="ci" d="M567.8,181.0 V191.0 M567.8,186.0 H599.4 M599.4,181.0 V191.0" fill="none"/><line x1="300.9" y1="177.0" x2="300.9" y2="195.0" stroke="var(--ink)" stroke-width="1.5" opacity="0.4"/><text class="meta" x="980" y="186.0" text-anchor="end">n=1440</text><text class="lbl" x="0" y="210.0"><title>guard</title>guard</text><text class="val" x="266" y="210.0" text-anchor="end">49.3%</text><rect class="trk" x="280" y="204.0" width="614" height="12" rx="6"/><rect class="fill" x="280" y="204.0" width="302.7" height="12" rx="6"><title>guard: 49.3% (CI 45.7-53.0), n=720</title></rect><path class="ci" d="M560.4,205.0 V215.0 M560.4,210.0 H605.1 M605.1,205.0 V215.0" fill="none"/><line x1="300.9" y1="201.0" x2="300.9" y2="219.0" stroke="var(--ink)" stroke-width="1.5" opacity="0.4"/><text class="meta" x="980" y="210.0" text-anchor="end">n=720</text><text class="lbl" x="0" y="234.0"><title>revocation</title>revocation</text><text class="val" x="266" y="234.0" text-anchor="end">48.8%</text><rect class="trk" x="280" y="228.0" width="614" height="12" rx="6"/><rect class="fill" x="280" y="228.0" width="299.6" height="12" rx="6"><title>revocation: 48.8% (CI 46.7-50.9), n=2240</title></rect><path class="ci" d="M566.9,229.0 V239.0 M566.9,234.0 H592.3 M592.3,229.0 V239.0" fill="none"/><line x1="300.9" y1="225.0" x2="300.9" y2="243.0" stroke="var(--ink)" stroke-width="1.5" opacity="0.4"/><text class="meta" x="980" y="234.0" text-anchor="end">n=2240</text><text class="lbl" x="0" y="258.0"><title>persistence</title>persistence</text><text class="val" x="266" y="258.0" text-anchor="end">47.7%</text><rect class="trk" x="280" y="252.0" width="614" height="12" rx="6"/><rect class="fill" x="280" y="252.0" width="293.0" height="12" rx="6"><title>persistence: 47.7% (CI 45.7-49.8), n=2240</title></rect><path class="ci" d="M560.4,253.0 V263.0 M560.4,258.0 H585.7 M585.7,253.0 V263.0" fill="none"/><line x1="300.9" y1="249.0" x2="300.9" y2="267.0" stroke="var(--ink)" stroke-width="1.5" opacity="0.4"/><text class="meta" x="980" y="258.0" text-anchor="end">n=2240</text><line x1="280" y1="276.0" x2="280" y2="284.0" stroke="var(--ink)" stroke-width="1.5" opacity="0.4"/><text class="meta" x="288" y="280.0">regex floor 3.4%</text></svg>